<svg xmlns="http://www.w3.org/2000/svg" viewBox="0 0 125.98 156.15"><defs><style>.cls-1{fill:#fff;}</style></defs><title>Recurso 2</title><g id="Capa_2" data-name="Capa 2"><g id="Capa_2-2" data-name="Capa 2"><path class="cls-1" d="M98.63,25.08l26,18.2a2,2,0,0,1,.86,1.64V154.14a2,2,0,0,1-3.11,1.67l-26-17.33a2,2,0,0,1-.89-1.67V26.72A2,2,0,0,1,98.63,25.08Z"/><path class="cls-1" d="M47.65,40.31l19.7,15.41a2,2,0,0,1-.09,3.22L48.94,71.68A2,2,0,0,0,49,75l37.08,23.8a2,2,0,0,1,.92,1.65l.43,29.1a2,2,0,0,1-3.12,1.69L.88,75a2,2,0,0,1,0-3.29L45.26,40.25A2,2,0,0,1,47.65,40.31Z"/><path class="cls-1" d="M101.55,17.09l21.32,14.22A2,2,0,0,0,126,29.64V2A2,2,0,0,0,122.92.31L101.6,13.74A2,2,0,0,0,101.55,17.09Z"/></g></g></svg>